<svg xmlns="http://www.w3.org/2000/svg" viewBox="0 0 1200 580" font-family="'Space Grotesk', 'Segoe UI', system-ui, sans-serif">
  <defs>
    <marker id="arrow" viewBox="0 0 10 10" refX="9" refY="5" markerWidth="7" markerHeight="7" orient="auto-start-reverse">
      <path d="M0 0 L10 5 L0 10 z" fill="#8ea0b6" />
    </marker>
    <style>
      .box { fill: #16202e; stroke: #29394e; stroke-width: 1.5; }
      .box-source { fill: #16202e; stroke: #f5b14c; stroke-width: 2; }
      .title { fill: #e7eef7; font-size: 15px; font-weight: 700; }
      .body { fill: #8ea0b6; font-size: 11.5px; }
      .edge { stroke: #8ea0b6; stroke-width: 1.6; fill: none; }
      .edge-rest { stroke: #f5b14c; stroke-width: 1.8; fill: none; }
      .lbl { fill: #c7d4e3; font-size: 11px; }
      .lbl-bg { fill: #0e1520; }
      .cyan { fill: #4fd1e0; }
      .amber { fill: #f5b14c; }
      .host { fill: #5f7288; font-size: 10px; font-weight: 600; letter-spacing: 0.4px; }
      .host-pill { fill: #0e1520; stroke: #29394e; stroke-width: 1; }
    </style>
  </defs>

  <rect x="0" y="0" width="1200" height="580" fill="#0e1520" />

  <text x="600" y="46" text-anchor="middle" fill="#e7eef7" font-size="24" font-weight="700">Office Power Monitor: System Architecture</text>
  <text x="600" y="74" text-anchor="middle" fill="#8ea0b6" font-size="13">One backend, one source of truth → web dashboard + Discord bot</text>

  <!-- 1. Simulator -->
  <g>
    <rect class="box" x="40" y="222" width="180" height="106" rx="11" />
    <text class="title" x="130" y="252" text-anchor="middle">Simulator</text>
    <text class="body" x="130" y="273" text-anchor="middle">catches up to "now"</text>
    <text class="body" x="130" y="290" text-anchor="middle">on each request</text>
    <text class="body" x="130" y="307" text-anchor="middle">flips devices, accrues kWh</text>
  </g>

  <!-- 2. Store (source of truth) -->
  <g>
    <rect class="box-source" x="290" y="222" width="180" height="106" rx="11" />
    <text class="title" x="380" y="252" text-anchor="middle">In-memory Store</text>
    <text x="380" y="273" text-anchor="middle" class="amber" font-size="11.5" font-weight="600">★ source of truth</text>
    <text class="body" x="380" y="291" text-anchor="middle">device states</text>
    <text class="body" x="380" y="308" text-anchor="middle">+ today's kWh</text>
  </g>

  <!-- 3. Backend -->
  <g>
    <rect class="box" x="560" y="195" width="190" height="160" rx="11" />
    <text class="title" x="655" y="224" text-anchor="middle">Backend (Node.js)</text>
    <circle cx="588" cy="254" r="4" class="amber" />
    <text x="600" y="258" fill="#c7d4e3" font-size="12">Express REST API</text>
    <text class="body" x="655" y="280" text-anchor="middle">GET /api/state, /summary,</text>
    <text class="body" x="655" y="296" text-anchor="middle">/devices, /usage, /alerts</text>
    <text class="body" x="655" y="318" text-anchor="middle">serverless function,</text>
    <text class="body" x="655" y="334" text-anchor="middle">no background timer</text>
    <rect class="host-pill" x="605" y="342" width="100" height="18" rx="9" />
    <text class="host" x="655" y="354" text-anchor="middle" fill="#8ea0b6">▲ VERCEL</text>
  </g>

  <!-- 4. Dashboard -->
  <g>
    <rect class="box" x="820" y="100" width="180" height="112" rx="11" />
    <text class="title" x="910" y="130" text-anchor="middle">Web Dashboard</text>
    <text class="body" x="910" y="151" text-anchor="middle">browser · polls every 4s</text>
    <text class="body" x="910" y="168" text-anchor="middle">devices, power meter,</text>
    <text class="body" x="910" y="185" text-anchor="middle">alerts, floor plan</text>
    <rect class="host-pill" x="860" y="196" width="100" height="18" rx="9" />
    <text class="host" x="910" y="208" text-anchor="middle" fill="#8ea0b6">▲ VERCEL</text>
  </g>

  <!-- 5. Bot -->
  <g>
    <rect class="box" x="820" y="358" width="180" height="112" rx="11" />
    <text class="title" x="910" y="388" text-anchor="middle">Discord Bot</text>
    <text class="body" x="910" y="409" text-anchor="middle">/status · /room · /usage</text>
    <text class="body" x="910" y="426" text-anchor="middle">reads REST,</text>
    <text class="body" x="910" y="443" text-anchor="middle">posts proactive alerts</text>
    <rect class="host-pill" x="860" y="454" width="100" height="18" rx="9" />
    <text class="host" x="910" y="466" text-anchor="middle" fill="#8ea0b6">◆ RENDER</text>
  </g>

  <!-- 6. User -->
  <g>
    <rect class="box" x="1050" y="238" width="120" height="96" rx="11" />
    <text class="title" x="1110" y="282" text-anchor="middle">User</text>
    <text class="body" x="1110" y="304" text-anchor="middle">boss &amp; team</text>
  </g>

  <!-- edges -->
  <!-- Sim -> Store -->
  <line class="edge" x1="220" y1="275" x2="286" y2="275" marker-end="url(#arrow)" />
  <text class="lbl" x="253" y="267" text-anchor="middle">updates</text>

  <!-- Store -> Backend -->
  <line class="edge" x1="470" y1="275" x2="556" y2="275" marker-end="url(#arrow)" />
  <text class="lbl" x="513" y="267" text-anchor="middle">reads</text>

  <!-- Backend REST -> Dashboard (polled) -->
  <path class="edge-rest" d="M750 245 C 790 210, 795 180, 816 165" marker-end="url(#arrow)" />
  <rect class="lbl-bg" x="695" y="188" width="165" height="16" rx="3" />
  <text x="777" y="200" text-anchor="middle" class="amber" font-size="11">REST /api/state (polled ~4s)</text>

  <!-- Backend REST -> Bot (on command) -->
  <path class="edge-rest" d="M750 310 C 790 350, 795 385, 816 400" marker-end="url(#arrow)" />
  <rect class="lbl-bg" x="700" y="365" width="152" height="16" rx="3" />
  <text x="776" y="377" text-anchor="middle" class="amber" font-size="11">REST /api/* (on command)</text>

  <!-- Dashboard -> User -->
  <path class="edge" d="M1000 158 C 1030 185, 1040 210, 1050 244" marker-end="url(#arrow)" />
  <text class="lbl" x="1058" y="200" text-anchor="middle">views live</text>

  <!-- Bot <-> User -->
  <path class="edge" d="M1000 410 C 1030 388, 1040 360, 1050 326" marker-end="url(#arrow)" marker-start="url(#arrow)" />
  <rect class="lbl-bg" x="1000" y="364" width="150" height="16" rx="3" />
  <text x="1075" y="376" text-anchor="middle" class="lbl" font-size="11">commands / replies + alerts</text>

  <!-- caption -->
  <text x="600" y="536" text-anchor="middle" fill="#8ea0b6" font-size="11.5">Data flows one way: simulator to store to backend. Both the dashboard and the bot read the same REST API,</text>
  <text x="600" y="554" text-anchor="middle" fill="#8ea0b6" font-size="11.5">the dashboard polls it on an interval, the bot queries it on command.</text>
  <text x="600" y="572" text-anchor="middle" fill="#5f7288" font-size="11">Both interfaces read the same single source of truth, so they never disagree. The star marks the source of truth.</text>
</svg>
